<?xml version="1.0" encoding="utf-8"?>
<!-- Generator: Adobe Illustrator 19.2.1, SVG Export Plug-In . SVG Version: 6.00 Build 0)  -->
<svg version="1.1" id="Layer_1" xmlns="http://www.w3.org/2000/svg" xmlns:xlink="http://www.w3.org/1999/xlink" x="0px" y="0px"
	 viewBox="0 0 283.5 283.5" enable-background="new 0 0 283.5 283.5" xml:space="preserve">
<g id="Green_triangles">
	<polygon fill="#FFFFFF" points="107.6,86 107.6,107.6 86.1,86 107.6,64.5 	"/>
	<polygon fill="#FFFFFF" points="172.1,64.6 172.1,86.1 150.6,64.6 172.1,43 	"/>
	<polygon fill="#FFFFFF" points="172.1,107.6 150.5,107.6 172.1,86 193.6,107.6 	"/>
	<polygon fill="#FFFFFF" points="107.5,172.2 129.1,172.2 107.5,193.7 86,172.2 	"/>
	<polygon fill="#FFFFFF" points="215.1,64.5 215.1,86 193.6,64.5 215.1,43 	"/>
	<polygon fill="#FFFFFF" points="129.1,21.5 150.6,21.5 129.1,43 107.5,21.5 	"/>
	<polygon fill="#FFFFFF" points="64.5,43 64.5,64.6 43,43 64.5,21.5 	"/>
</g>
<g id="Red_triangles">
	<polygon fill="#FFFFFF" points="86,64.6 86,43 107.5,64.6 86,86.1 	"/>
	<polygon fill="#FFFFFF" points="150.6,86 129.1,86 150.6,64.5 172.1,86 	"/>
	<polygon fill="#FFFFFF" points="129.1,107.6 129.1,129.1 107.5,107.6 129.1,86 	"/>
	<polygon fill="#FFFFFF" points="107.5,129.1 129.1,129.1 107.5,150.6 86,129.1 	"/>
	<polygon fill="#FFFFFF" points="150.5,129.1 150.5,150.6 129,129.1 150.5,107.6 	"/>
	<polygon fill="#FFFFFF" points="172.1,21.5 172.1,43 150.6,21.5 172.1,0 	"/>
	<polygon fill="#FFFFFF" points="64.5,86 43,86 64.5,64.5 86,86 	"/>
	<polygon fill="#FFFFFF" points="64.5,0 86,0 64.5,21.5 43,0 	"/>
</g>
<g id="Green_triangles_1_">
	<polygon fill="#FFFFFF" points="172.2,150.6 172.2,172.1 150.6,150.6 172.2,129.1 	"/>
	<polygon fill="#FFFFFF" points="236.7,129.1 236.7,150.6 215.2,129.1 236.7,107.6 	"/>
	<polygon fill="#FFFFFF" points="236.6,172.1 215.1,172.1 236.6,150.6 258.1,172.1 	"/>
	<polygon fill="#FFFFFF" points="172.1,236.7 193.6,236.7 172.1,258.2 150.6,236.7 	"/>
	<polygon fill="#FFFFFF" points="279.7,129.1 279.7,150.6 258.1,129.1 279.7,107.5 	"/>
	<polygon fill="#FFFFFF" points="193.6,86.1 215.2,86.1 193.6,107.6 172.1,86.1 	"/>
	<polygon fill="#FFFFFF" points="129,107.6 129,129.1 107.5,107.6 129,86.1 	"/>
</g>
<g id="Green_triangles_2_">
	<polygon fill="#FFFFFF" points="64.6,172.1 64.6,193.7 43.1,172.1 64.6,150.6 	"/>
	<polygon fill="#FFFFFF" points="129.2,150.6 129.2,172.2 107.6,150.6 129.2,129.1 	"/>
	<polygon fill="#FFFFFF" points="129.1,193.7 107.6,193.7 129.1,172.1 150.6,193.7 	"/>
	<polygon fill="#FFFFFF" points="64.6,258.2 86.1,258.2 64.6,279.8 43.1,258.2 	"/>
	<polygon fill="#FFFFFF" points="172.2,150.6 172.2,172.1 150.6,150.6 172.2,129.1 	"/>
	<polygon fill="#FFFFFF" points="86.1,107.6 107.6,107.6 86.1,129.1 64.6,107.6 	"/>
	<polygon fill="#FFFFFF" points="21.5,129.1 21.5,150.7 0,129.1 21.5,107.6 	"/>
</g>
</svg>
